<?xml version="1.0" encoding="UTF-8"?>
<svg id="Calque_1" xmlns="http://www.w3.org/2000/svg" version="1.1" viewBox="0 0 1920 1080">
  <!-- Generator: Adobe Illustrator 29.1.0, SVG Export Plug-In . SVG Version: 2.1.0 Build 142)  -->
  <defs>
    <style>
      .st0 {
        fill: #26b4b3;
        stroke: #29b4b2;
        stroke-miterlimit: 10;
        stroke-width: .15px;
      }

      .st1 {
        fill: #253879;
        stroke: #253879;
        stroke-linejoin: round;
        stroke-width: 6px;
      }
    </style>
  </defs>
  <g>
    <g>
      <path class="st0" d="M242.14,892.66h7.22l36.1,86.9h-9.06l-11.26-27.17h-39.05l-11.14,27.17h-9.18l36.35-86.9ZM263.19,945.66l-17.5-42.96-17.75,42.96h35.25Z"/>
      <path class="st0" d="M288.65,981.69h-13.67l-11.26-27.17h-36.2l-11.14,27.17h-13.81l38.13-91.16h10.06l37.87,91.16ZM277.83,977.43h4.45l-34.34-82.65h-4.39l-34.57,82.65h4.55l11.14-27.17h41.89l11.26,27.17ZM266.35,947.78h-41.59l20.94-50.7,20.65,50.7ZM231.12,943.53h28.9l-14.35-35.23-14.55,35.23Z"/>
    </g>
    <g>
      <path class="st0" d="M322.43,979.56v-86.9h29.5c6.94,0,12.99,1.14,18.18,3.42,5.18,2.29,9.5,5.39,12.97,9.3,3.47,3.92,6.08,8.51,7.83,13.77,1.75,5.26,2.63,10.87,2.63,16.83,0,6.61-.98,12.59-2.94,17.93-1.96,5.35-4.76,9.91-8.39,13.71-3.63,3.79-8,6.73-13.1,8.81-5.1,2.08-10.83,3.12-17.2,3.12h-29.5ZM384.97,935.99c0-5.22-.73-10.01-2.2-14.38-1.47-4.36-3.61-8.14-6.43-11.32-2.82-3.18-6.26-5.65-10.34-7.4-4.08-1.75-8.77-2.63-14.08-2.63h-20.93v71.72h20.93c5.39,0,10.14-.92,14.26-2.76,4.12-1.83,7.57-4.36,10.34-7.59,2.78-3.22,4.88-7.02,6.31-11.38,1.43-4.36,2.14-9.12,2.14-14.26Z"/>
      <path class="st0" d="M351.93,981.69h-31.63v-91.16h31.63c7.19,0,13.6,1.21,19.03,3.6,5.44,2.4,10.06,5.71,13.71,9.84,3.64,4.11,6.42,8.99,8.26,14.51,1.82,5.46,2.74,11.35,2.74,17.5,0,6.83-1.03,13.11-3.07,18.66-2.05,5.59-5.02,10.45-8.85,14.45-3.82,4-8.48,7.13-13.83,9.31-5.33,2.18-11.39,3.28-18,3.28ZM324.56,977.43h27.37c6.06,0,11.57-1,16.39-2.96,4.8-1.96,8.96-4.76,12.37-8.31,3.42-3.57,6.08-7.94,7.93-12.97,1.86-5.08,2.81-10.87,2.81-17.2,0-5.69-.85-11.13-2.53-16.16-1.66-4.97-4.15-9.35-7.41-13.03-3.25-3.67-7.36-6.62-12.24-8.77-4.89-2.15-10.72-3.24-17.32-3.24h-27.37v82.65ZM351.93,974.1h-23.06v-75.98h23.06c5.57,0,10.59.94,14.91,2.8,4.36,1.88,8.09,4.55,11.1,7.95,2.99,3.38,5.29,7.43,6.84,12.05,1.54,4.56,2.32,9.63,2.32,15.06s-.75,10.36-2.25,14.92c-1.51,4.62-3.78,8.69-6.72,12.11-2.96,3.45-6.69,6.19-11.09,8.14-4.37,1.95-9.47,2.94-15.12,2.94ZM333.12,969.84h18.8c5.06,0,9.56-.86,13.39-2.57,3.82-1.7,7.05-4.06,9.59-7.03,2.58-2.99,4.56-6.58,5.9-10.66,1.35-4.13,2.04-8.7,2.04-13.6s-.7-9.58-2.09-13.7c-1.37-4.08-3.39-7.64-6-10.59-2.59-2.93-5.82-5.24-9.59-6.86-3.79-1.63-8.24-2.46-13.23-2.46h-18.8v67.47Z"/>
    </g>
    <g>
      <path class="st0" d="M469.43,979.56v-23.26h-42.72v-7.47l45.29-56.18h5.75v56.06h10.77v7.59h-10.77v23.26h-8.32ZM435.65,948.71h34.52v-43.08l-34.52,43.08Z"/>
      <path class="st0" d="M479.88,981.69h-12.57v-23.26h-42.72v-10.35l46.4-57.56h8.89v56.06h10.77v11.84h-10.77v23.26ZM471.56,977.43h4.06v-23.26h10.77v-3.33h-10.77v-56.06h-2.61l-44.18,54.8v4.59h42.72v23.26ZM472.29,950.84h-41.08l41.08-51.27v51.27ZM440.08,946.59h27.96v-34.9l-27.96,34.9Z"/>
    </g>
    <g>
      <path class="st0" d="M579.34,908.94c-2.45-2.78-5.71-5.02-9.79-6.73-4.08-1.72-8.74-2.57-13.96-2.57-7.67,0-13.26,1.45-16.77,4.35-3.51,2.9-5.27,6.84-5.27,11.81,0,2.61.47,4.76,1.41,6.43.94,1.67,2.39,3.12,4.35,4.35,1.96,1.22,4.47,2.29,7.53,3.19,3.06.9,6.67,1.79,10.83,2.69,4.65.98,8.83,2.08,12.55,3.3,3.71,1.22,6.87,2.76,9.48,4.59,2.61,1.83,4.61,4.06,6,6.67,1.39,2.61,2.08,5.87,2.08,9.79s-.78,7.47-2.33,10.4c-1.55,2.94-3.71,5.39-6.49,7.35-2.78,1.96-6.08,3.41-9.91,4.35-3.84.94-8.04,1.41-12.61,1.41-13.46,0-25.09-4.2-34.88-12.61l4.28-6.98c1.55,1.63,3.4,3.18,5.57,4.65,2.16,1.47,4.57,2.75,7.22,3.85,2.65,1.1,5.49,1.96,8.51,2.57,3.02.61,6.2.92,9.55.92,6.93,0,12.34-1.24,16.22-3.73,3.87-2.49,5.81-6.26,5.81-11.32,0-2.69-.55-4.96-1.65-6.79-1.1-1.83-2.76-3.43-4.96-4.77-2.2-1.35-4.94-2.51-8.2-3.49-3.26-.98-7.06-1.96-11.38-2.94-4.57-1.06-8.57-2.16-11.99-3.3-3.43-1.14-6.33-2.57-8.69-4.29-2.37-1.71-4.14-3.77-5.32-6.18-1.18-2.41-1.78-5.36-1.78-8.87,0-4,.76-7.57,2.27-10.71,1.51-3.14,3.65-5.75,6.42-7.83,2.78-2.08,6.04-3.67,9.79-4.77,3.75-1.1,7.91-1.65,12.48-1.65,5.8,0,10.95.88,15.48,2.63,4.53,1.75,8.63,4.22,12.3,7.4l-4.16,6.86Z"/>
      <path class="st0" d="M556.46,982.42c-13.93,0-26.14-4.41-36.27-13.12l-1.38-1.18,6.69-10.89,1.91,2.02c1.42,1.5,3.17,2.96,5.22,4.35,2.02,1.37,4.32,2.6,6.84,3.65,2.52,1.05,5.25,1.87,8.11,2.45,2.86.58,5.93.88,9.13.88,6.49,0,11.56-1.14,15.07-3.4,3.25-2.09,4.83-5.21,4.83-9.53,0-2.28-.46-4.2-1.35-5.7-.92-1.53-2.35-2.89-4.24-4.04-2.04-1.25-4.63-2.35-7.71-3.27-3.2-.96-6.98-1.94-11.24-2.9-4.61-1.07-8.71-2.2-12.2-3.36-3.62-1.21-6.74-2.75-9.26-4.58-2.64-1.91-4.65-4.25-5.98-6.97-1.32-2.69-1.99-6-1.99-9.81,0-4.3.83-8.22,2.48-11.63,1.64-3.43,4.02-6.33,7.06-8.61,2.97-2.22,6.49-3.94,10.47-5.11,3.94-1.16,8.34-1.74,13.08-1.74,6.03,0,11.49.93,16.25,2.77,4.74,1.84,9.09,4.46,12.92,7.78l1.36,1.18-6.6,10.86-1.91-2.17c-2.22-2.52-5.25-4.59-9.01-6.18-3.8-1.6-8.21-2.4-13.13-2.4-7.12,0-12.31,1.3-15.41,3.86-3.02,2.49-4.5,5.82-4.5,10.17,0,2.23.38,4.04,1.14,5.38.75,1.35,1.97,2.56,3.61,3.58,1.79,1.12,4.15,2.11,7,2.95,2.97.87,6.56,1.76,10.68,2.65,4.68.99,8.98,2.12,12.77,3.36,3.89,1.29,7.28,2.92,10.04,4.87,2.88,2.02,5.11,4.51,6.65,7.41,1.55,2.91,2.33,6.54,2.33,10.79s-.86,8.15-2.57,11.39c-1.7,3.22-4.11,5.95-7.14,8.09-2.99,2.11-6.57,3.68-10.63,4.67-3.98.97-8.39,1.47-13.11,1.47ZM524.35,967.23c9.06,7.26,19.85,10.94,32.11,10.94,4.38,0,8.45-.45,12.1-1.34,3.55-.87,6.64-2.22,9.19-4.02,2.48-1.76,4.45-3.98,5.83-6.6,1.38-2.62,2.08-5.78,2.08-9.41s-.62-6.51-1.84-8.79c-1.22-2.3-3.02-4.3-5.34-5.93-2.43-1.71-5.43-3.16-8.93-4.31-3.64-1.2-7.78-2.29-12.32-3.24-4.23-.91-7.92-1.83-10.99-2.73-3.23-.95-5.94-2.1-8.06-3.42-2.26-1.41-3.97-3.13-5.07-5.11-1.11-1.98-1.68-4.5-1.68-7.46,0-5.62,2.03-10.14,6.04-13.45,3.94-3.25,9.86-4.83,18.12-4.83,5.49,0,10.46.92,14.78,2.74,3.34,1.4,6.21,3.17,8.55,5.27l1.8-2.97c-3.12-2.47-6.57-4.45-10.29-5.89-4.27-1.65-9.22-2.49-14.72-2.49-4.34,0-8.34.53-11.88,1.57-3.49,1.03-6.56,2.52-9.12,4.43-2.48,1.87-4.43,4.24-5.78,7.05-1.36,2.84-2.06,6.13-2.06,9.79,0,3.16.52,5.83,1.56,7.94,1.02,2.08,2.59,3.9,4.66,5.4,2.18,1.58,4.9,2.92,8.12,3.99,3.37,1.12,7.34,2.22,11.8,3.25,4.34.98,8.22,1.98,11.51,2.97,3.43,1.03,6.36,2.28,8.7,3.71,2.48,1.51,4.39,3.36,5.67,5.49,1.3,2.18,1.96,4.83,1.96,7.89,0,5.8-2.28,10.21-6.79,13.11-4.21,2.7-10.05,4.07-17.37,4.07-3.48,0-6.84-.32-9.97-.96-3.13-.63-6.12-1.54-8.9-2.69-2.79-1.16-5.35-2.52-7.6-4.06-1.44-.98-2.76-1.99-3.94-3.04l-1.94,3.15Z"/>
    </g>
    <g>
      <path class="st0" d="M621.57,935.5c0-5.22.92-10.42,2.75-15.6,1.83-5.18,4.51-9.81,8.02-13.89,3.51-4.08,7.83-7.4,12.97-9.98,5.14-2.57,10.97-3.85,17.5-3.85,7.75,0,14.38,1.75,19.89,5.26,5.51,3.51,9.57,8.08,12.18,13.71l-6.73,4.16c-1.39-2.86-3.08-5.26-5.08-7.22-2-1.96-4.14-3.55-6.42-4.77-2.29-1.22-4.65-2.1-7.1-2.63-2.45-.53-4.86-.79-7.22-.79-5.22,0-9.83,1.06-13.83,3.18-4,2.12-7.36,4.9-10.1,8.32-2.74,3.43-4.79,7.28-6.18,11.57-1.39,4.28-2.08,8.63-2.08,13.04,0,4.82.83,9.42,2.51,13.83,1.67,4.41,3.96,8.31,6.86,11.69,2.89,3.39,6.33,6.08,10.28,8.08,3.96,2,8.26,3,12.91,3,2.45,0,4.96-.3,7.53-.92,2.57-.61,5.06-1.59,7.47-2.94,2.4-1.35,4.63-3.02,6.67-5.02,2.04-2,3.75-4.43,5.14-7.28l7.1,3.67c-1.39,3.26-3.35,6.14-5.88,8.63-2.53,2.49-5.34,4.59-8.44,6.3-3.1,1.72-6.38,3.02-9.85,3.92-3.47.89-6.87,1.34-10.22,1.34-5.96,0-11.42-1.3-16.4-3.92-4.98-2.61-9.27-6.02-12.85-10.22-3.59-4.2-6.39-8.97-8.39-14.32-2-5.34-3-10.79-3-16.34Z"/>
      <path class="st0" d="M662.2,982.42c-6.28,0-12.13-1.4-17.39-4.16-5.19-2.72-9.73-6.33-13.48-10.72-3.75-4.38-6.69-9.41-8.76-14.96-2.08-5.56-3.13-11.3-3.13-17.08,0-5.44.97-10.93,2.88-16.31,1.91-5.4,4.74-10.3,8.41-14.57,3.68-4.27,8.27-7.8,13.64-10.49,5.42-2.71,11.63-4.08,18.46-4.08,8.12,0,15.2,1.88,21.03,5.6,5.83,3.71,10.19,8.63,12.97,14.61l.8,1.71-10.34,6.39-1.03-2.12c-1.28-2.63-2.84-4.86-4.66-6.64-1.84-1.8-3.83-3.28-5.94-4.42-2.09-1.12-4.3-1.94-6.55-2.43-7.31-1.58-14.27-.65-19.6,2.19-3.72,1.98-6.9,4.59-9.43,7.77-2.55,3.2-4.51,6.87-5.82,10.9-1.31,4.04-1.97,8.21-1.97,12.38,0,4.54.8,8.94,2.37,13.07,1.58,4.15,3.76,7.88,6.48,11.06,2.69,3.15,5.93,5.69,9.62,7.56,5.57,2.81,12.13,3.55,18.98,1.91,2.37-.56,4.7-1.48,6.93-2.72,2.23-1.25,4.32-2.82,6.22-4.68,1.85-1.81,3.44-4.06,4.72-6.7l.96-1.96,10.78,5.58-.77,1.81c-1.49,3.5-3.62,6.64-6.34,9.32-2.64,2.61-5.64,4.85-8.9,6.65-3.24,1.79-6.73,3.18-10.35,4.12-3.63.94-7.25,1.41-10.75,1.41ZM662.82,894.29c-6.16,0-11.73,1.22-16.55,3.63-4.86,2.43-9,5.62-12.31,9.46-3.32,3.87-5.89,8.31-7.63,13.22-1.75,4.93-2.63,9.94-2.63,14.89,0,5.27.96,10.52,2.86,15.59,1.9,5.08,4.59,9.69,8.01,13.68,3.4,3.98,7.51,7.25,12.22,9.72,7.26,3.81,16.01,4.74,25.1,2.4,3.28-.85,6.43-2.1,9.36-3.72,2.93-1.61,5.61-3.62,7.98-5.95,1.86-1.82,3.39-3.89,4.57-6.17l-3.41-1.76c-1.3,2.26-2.82,4.26-4.55,5.95-2.16,2.12-4.56,3.92-7.12,5.35-2.57,1.44-5.27,2.5-8.02,3.15-7.82,1.88-15.43,1.02-21.89-2.25-4.2-2.12-7.88-5.01-10.94-8.59-3.04-3.56-5.47-7.7-7.23-12.32-1.75-4.62-2.64-9.53-2.64-14.59,0-4.62.73-9.23,2.19-13.69,1.46-4.52,3.67-8.64,6.54-12.24,2.9-3.64,6.52-6.62,10.76-8.87,6.23-3.31,14.19-4.39,22.5-2.59,2.63.57,5.21,1.53,7.65,2.84,2.46,1.32,4.79,3.05,6.91,5.13,1.66,1.62,3.14,3.55,4.41,5.74l3.14-1.94c-2.43-4.48-5.97-8.22-10.54-11.13-5.14-3.27-11.45-4.93-18.75-4.93Z"/>
    </g>
    <g>
      <path class="st0" d="M735.76,979.56v-86.9h36.72c3.75,0,7.2.79,10.34,2.38,3.14,1.59,5.85,3.67,8.14,6.24,2.28,2.57,4.06,5.49,5.32,8.75,1.27,3.26,1.9,6.57,1.9,9.91s-.47,6.22-1.41,9.12c-.94,2.9-2.25,5.51-3.92,7.83-1.67,2.33-3.7,4.28-6.06,5.88-2.37,1.59-5.02,2.67-7.96,3.24l21.3,33.54h-9.67l-20.44-32.07h-25.71v32.07h-8.57ZM744.33,939.9h28.4c2.53,0,4.84-.55,6.92-1.65,2.08-1.1,3.85-2.59,5.32-4.47,1.47-1.88,2.61-4,3.42-6.36.81-2.37,1.23-4.86,1.23-7.47s-.47-5.12-1.41-7.53c-.94-2.4-2.2-4.51-3.8-6.3-1.59-1.79-3.47-3.22-5.63-4.28-2.16-1.06-4.43-1.59-6.79-1.59h-27.67v39.65Z"/>
      <path class="st0" d="M804.02,981.69h-14.71l-20.44-32.07h-22.41v32.07h-12.82v-91.16h38.85c4.07,0,7.87.88,11.3,2.61,3.37,1.71,6.32,3.97,8.77,6.73,2.44,2.74,4.36,5.91,5.72,9.4,1.36,3.49,2.04,7.08,2.04,10.68,0,3.38-.51,6.67-1.51,9.77-1,3.08-2.42,5.92-4.21,8.42-1.81,2.52-4.04,4.67-6.6,6.4-1.78,1.19-3.71,2.13-5.78,2.8l21.81,34.34ZM791.64,977.43h4.64l-20.9-32.9,3.07-.59c2.64-.51,5.05-1.5,7.17-2.92,2.15-1.45,4.01-3.25,5.52-5.35,1.53-2.14,2.75-4.58,3.62-7.25.86-2.68,1.3-5.52,1.3-8.46s-.59-6.15-1.76-9.15c-1.17-3.02-2.83-5.75-4.93-8.11-2.1-2.36-4.63-4.3-7.51-5.76-2.82-1.43-5.98-2.15-9.38-2.15h-34.59v82.65h4.31v-32.07h29l20.44,32.07ZM772.73,942.03h-30.52v-43.91h29.79c2.68,0,5.27.61,7.73,1.8,2.4,1.18,4.52,2.79,6.29,4.78,1.74,1.97,3.15,4.3,4.19,6.94,1.03,2.65,1.55,5.44,1.55,8.31s-.45,5.57-1.34,8.16c-.88,2.56-2.14,4.91-3.76,6.98-1.65,2.11-3.67,3.8-6.01,5.04-2.38,1.26-5.04,1.9-7.92,1.9ZM746.46,937.77h26.27c2.17,0,4.17-.47,5.92-1.4,1.8-.96,3.37-2.27,4.65-3.9,1.32-1.69,2.36-3.62,3.09-5.74.74-2.14,1.11-4.42,1.11-6.78s-.42-4.61-1.26-6.76c-.85-2.17-2-4.07-3.41-5.66-1.4-1.58-3.08-2.85-4.98-3.79-1.89-.92-3.8-1.37-5.85-1.37h-25.54v35.4Z"/>
    </g>
    <g>
      <path class="st0" d="M898.55,971.97v7.59h-58.39v-86.9h57.28v7.59h-48.71v31.33h42.47v7.22h-42.47v33.17h49.82Z"/>
      <path class="st0" d="M900.68,981.69h-62.64v-91.16h61.54v11.84h-48.72v27.08h42.47v11.48h-42.47v28.92h49.82v11.84ZM842.3,977.43h54.13v-3.33h-49.82v-37.43h42.47v-2.97h-42.47v-35.59h48.72v-3.33h-53.03v82.65Z"/>
    </g>
    <g>
      <path class="st0" d="M997.57,971.97v7.59h-58.39v-86.9h57.28v7.59h-48.72v31.33h42.48v7.22h-42.48v33.17h49.82Z"/>
      <path class="st0" d="M999.7,981.69h-62.64v-91.16h61.54v11.84h-48.72v27.08h42.47v11.48h-42.47v28.92h49.82v11.84ZM941.32,977.43h54.13v-3.33h-49.82v-37.43h42.47v-2.97h-42.47v-35.59h48.72v-3.33h-53.03v82.65Z"/>
    </g>
    <g>
      <path class="st0" d="M1046.77,908.57v70.99h-8.57v-86.9h6.61l57.53,72.33v-72.22h8.57v86.78h-7.47l-56.67-70.99Z"/>
      <path class="st0" d="M1113.04,981.69h-10.62l-53.52-67.04v67.04h-12.82v-91.16h9.76l54.37,68.37v-68.25h12.83v91.04ZM1104.47,977.43h4.32v-82.53h-4.32v76.18l-60.68-76.3h-3.46v82.65h4.31v-74.94l59.82,74.94Z"/>
    </g>
  </g>
  <g>
    <path class="st1" d="M1588.2,520.85c-48.06-15.56-89.56-29-89.56-70.83,0-28.74,28.71-59.75,75.09-59.75,39.73,0,76.61,30.7,76.61,73v6.49h64.92v-6.49c0-74.21-66.66-132.34-141.51-132.35,0,0-.01,0-.02,0h0c-38.16,0-73.8,13.07-100.36,36.81-25.2,22.52-39.65,52.51-39.65,82.3,0,86.19,68.43,108.35,128.8,127.91,48.06,15.56,89.56,29,89.56,70.83,0,36.3-30.75,59.75-78.35,59.75l-124.32.96h-149.32v-152.05h-58.38v152.3l-204.79.88-23.42,57.27,228.21-.02v212.99h58.38v-212.99h.36s273.29,0,273.29,0c41.77,0,77.86-12.28,104.39-35.53,25.07-21.97,38.88-51.65,38.88-83.58,0-86.2-68.43-108.36-128.8-127.91Z"/>
    <path class="st1" d="M1218.13,119.13l-54.15-21.82-126.57,314.01c-22.22-27.62-50.99-49.54-84.27-63.74-110.69-47.2-239.14,4.45-286.34,115.14-47.2,110.69,4.45,239.14,115.14,286.34,46.25,19.72,97.23,22.83,145.23,9.13l28.71,11.57L1218.13,119.13ZM1010.72,477.55l-89.1,221.05c-37.47,13.47-79.22,12.77-116.77-3.24-81.08-34.57-118.91-128.66-84.34-209.73,34.57-81.08,128.66-118.91,209.73-84.34,35.55,15.16,63.8,42.53,80.47,76.26Z"/>
    <path class="st1" d="M559.94,380.69c-39.03-32.19-87.73-49.78-138.65-49.78-120.33,0-218.23,97.9-218.23,218.23s97.9,218.23,218.23,218.23c29.43,0,58.1-5.93,84.62-17.1v-65.74c-25,15.66-54.2,24.46-84.62,24.46-88.14,0-159.84-71.71-159.84-159.85s71.71-159.85,159.84-159.85c57.14,0,110.11,30.8,138.65,80.49v297.59h58.38v-436.46h-58.38v49.78Z"/>
  </g>
</svg>